<svg xmlns="http://www.w3.org/2000/svg" width="1140" height="1146" viewBox="0 0 1140 1146" version="1.1"><path d="M 504.500 2.471 C 444.339 7.117, 394.361 16.289, 364.789 28.111 C 360.548 29.806, 356.773 31.111, 356.401 31.011 C 356.028 30.911, 355.448 31.239, 355.112 31.740 C 354.775 32.240, 350.677 34.641, 346.005 37.075 C 341.333 39.509, 336.641 42.282, 335.579 43.239 C 334.517 44.195, 332.868 45.224, 331.916 45.527 C 330.964 45.829, 329.932 46.734, 329.624 47.538 C 329.315 48.342, 328.613 49, 328.062 49 C 327.095 49, 316.195 59.901, 312.063 65 C 310.949 66.375, 309.634 67.985, 309.141 68.577 C 308.648 69.169, 307.935 70.629, 307.557 71.821 C 307.179 73.013, 306.319 74.553, 305.647 75.244 C 304.974 75.935, 303.579 78.750, 302.545 81.500 C 301.512 84.250, 299.983 88.075, 299.147 90 C 298.312 91.925, 297.707 93.822, 297.803 94.215 C 297.898 94.609, 297.459 96.184, 296.827 97.715 C 296.195 99.247, 295.765 100.885, 295.874 101.355 C 295.982 101.826, 295.597 102.781, 295.018 103.479 C 294.439 104.176, 294.229 105.433, 294.551 106.272 C 294.873 107.111, 294.654 108.096, 294.065 108.460 C 293.475 108.824, 293.256 110.171, 293.577 111.452 C 293.901 112.741, 293.653 114.097, 293.022 114.486 C 292.337 114.910, 292.135 116.338, 292.516 118.071 C 292.864 119.655, 292.777 121.525, 292.324 122.226 C 291.068 124.168, 290.922 129.801, 290.428 195.250 L 289.969 256 427.235 256 L 564.500 256 564.299 273.250 L 564.098 290.500 368.299 290.836 C 260.610 291.021, 170.250 291.358, 167.500 291.586 C 164.750 291.813, 161.038 292.031, 159.250 292.071 C 157.463 292.110, 156 292.569, 156 293.090 C 156 293.612, 154.924 293.768, 153.609 293.438 C 152.294 293.108, 150.944 293.282, 150.608 293.825 C 150.273 294.368, 149.149 294.590, 148.112 294.319 C 147.074 294.048, 145.936 294.295, 145.581 294.869 C 145.226 295.443, 144.275 295.659, 143.468 295.349 C 142.661 295.040, 142 295.270, 142 295.862 C 142 296.453, 141.371 296.696, 140.601 296.400 C 139.832 296.105, 138.901 296.352, 138.532 296.948 C 138.163 297.545, 137.423 297.762, 136.887 297.430 C 136.351 297.099, 135.257 297.372, 134.456 298.036 C 133.655 298.701, 133 298.910, 133 298.500 C 133 298.090, 132.325 298.315, 131.500 299 C 130.675 299.685, 130 299.910, 130 299.500 C 130 299.090, 129.325 299.315, 128.500 300 C 127.675 300.685, 127 300.910, 127 300.500 C 127 300.090, 126.396 300.256, 125.658 300.869 C 124.920 301.481, 124.020 301.687, 123.658 301.325 C 123.296 300.963, 123 301.178, 123 301.802 C 123 302.426, 122.325 302.678, 121.500 302.362 C 120.675 302.045, 120 302.284, 120 302.893 C 120 303.502, 119.662 303.909, 119.250 303.798 C 118.838 303.687, 116.643 304.567, 114.374 305.755 C 112.104 306.943, 109.967 307.634, 109.624 307.290 C 109.281 306.947, 109 307.218, 109 307.892 C 109 308.566, 108.550 308.840, 108 308.500 C 107.450 308.160, 107 308.385, 107 309 C 107 309.615, 106.550 309.840, 106 309.500 C 105.450 309.160, 105 309.350, 105 309.922 C 105 310.494, 103.875 311.244, 102.500 311.589 C 101.125 311.934, 100 312.645, 100 313.167 C 100 313.690, 99.550 313.840, 99 313.500 C 98.450 313.160, 98 313.350, 98 313.922 C 98 314.494, 96.875 315.244, 95.500 315.589 C 94.125 315.934, 93 316.618, 93 317.108 C 93 317.599, 92.325 318, 91.500 318 C 90.675 318, 90 318.450, 90 319 C 90 319.550, 89.325 320, 88.500 320 C 87.675 320, 87 320.450, 87 321 C 87 321.550, 86.325 322, 85.500 322 C 84.675 322, 84 322.464, 84 323.031 C 84 323.599, 83.303 324.330, 82.451 324.657 C 80.528 325.395, 77.893 327.811, 64.846 340.800 C 52.439 353.151, 52.642 352.920, 47.053 361.040 C 44.607 364.593, 42.357 367.725, 42.053 368.001 C 40.119 369.752, 28.483 393.562, 24.665 403.579 C 19.142 418.068, 9.770 456.833, 4.981 485 C 0.396 511.965, -0 518.410, 0 566.096 C 0 606.220, 0.245 613.602, 2.015 626.873 C 6.382 659.599, 17.526 710.308, 24.835 730.709 C 33.967 756.198, 44.148 775.042, 59.243 794.394 C 62.469 798.531, 71.981 807.980, 76.462 811.500 C 78.562 813.150, 81.039 815.209, 81.967 816.076 C 82.894 816.943, 84.406 817.942, 85.326 818.295 C 86.247 818.648, 87 819.428, 87 820.028 C 87 820.627, 87.450 820.840, 88 820.500 C 88.550 820.160, 89 820.359, 89 820.941 C 89 821.523, 89.675 822, 90.500 822 C 91.325 822, 92 822.450, 92 823 C 92 823.550, 92.675 824, 93.500 824 C 94.325 824, 95 824.477, 95 825.059 C 95 825.641, 95.450 825.840, 96 825.500 C 96.550 825.160, 97 825.385, 97 826 C 97 826.615, 97.450 826.840, 98 826.500 C 98.550 826.160, 99 826.385, 99 827 C 99 827.615, 99.450 827.840, 100 827.500 C 100.550 827.160, 101 827.385, 101 828 C 101 828.615, 101.450 828.840, 102 828.500 C 102.550 828.160, 103 828.385, 103 829 C 103 829.615, 103.450 829.840, 104 829.500 C 104.550 829.160, 105 829.385, 105 830 C 105 830.615, 105.450 830.840, 106 830.500 C 106.550 830.160, 107 830.385, 107 831 C 107 831.615, 107.450 831.840, 108 831.500 C 108.550 831.160, 109 831.407, 109 832.048 C 109 832.689, 109.675 832.955, 110.500 832.638 C 111.325 832.322, 112 832.547, 112 833.138 C 112 833.730, 112.675 833.955, 113.500 833.638 C 114.325 833.322, 115 833.525, 115 834.090 C 115 834.656, 115.419 834.859, 115.931 834.543 C 116.443 834.226, 117.149 834.432, 117.500 835 C 117.851 835.568, 118.526 835.793, 119 835.500 C 119.474 835.207, 120.149 835.432, 120.500 836 C 120.851 836.568, 121.577 836.762, 122.113 836.430 C 122.649 836.099, 123.723 836.355, 124.500 837 C 125.277 837.645, 126.351 837.901, 126.887 837.570 C 127.423 837.238, 128.156 837.443, 128.515 838.024 C 128.874 838.606, 130.030 838.808, 131.084 838.473 C 132.230 838.109, 133 838.338, 133 839.041 C 133 839.807, 133.904 839.990, 135.596 839.565 C 137.023 839.207, 138.711 839.344, 139.346 839.869 C 140.884 841.141, 137.967 841.059, 201.213 841.617 L 256.926 842.110 257.261 769.305 C 257.589 697.962, 257.641 696.299, 259.855 686.500 C 262.883 673.091, 267.176 660.617, 272.989 648.330 C 277.913 637.923, 290.387 618, 291.979 618 C 292.467 618, 293.135 617.150, 293.464 616.112 C 293.993 614.445, 302.160 605.086, 307.959 599.500 C 316.836 590.949, 319.754 588.433, 327.127 582.966 C 331.728 579.554, 336.394 576.360, 337.496 575.867 C 338.598 575.374, 340.850 574.120, 342.500 573.081 C 346.729 570.418, 363.327 562, 364.349 562 C 364.816 562, 366.616 561.342, 368.349 560.537 C 372.405 558.654, 390.744 553.462, 398.500 552 C 411.722 549.508, 436.194 549.091, 572.538 549.033 C 726.695 548.969, 720.639 549.170, 740.762 543.440 C 762.156 537.348, 787.878 520.952, 802.500 504.086 C 811.551 493.646, 822 478.545, 822 475.905 C 822 475.407, 822.340 475, 822.755 475 C 823.171 475, 824.020 473.538, 824.643 471.750 C 825.266 469.962, 827.143 464.979, 828.814 460.676 C 830.486 456.373, 832.421 450.636, 833.116 447.926 C 833.810 445.217, 834.701 443, 835.095 443 C 835.490 443, 835.577 442.100, 835.290 441 C 834.974 439.793, 835.259 439, 836.008 439 C 836.843 439, 837.061 438.056, 836.674 436.118 C 836.357 434.533, 836.407 432.926, 836.785 432.548 C 837.791 431.543, 837.754 437.215, 837.766 282 C 837.779 127.299, 837.827 134.062, 836.704 132.296 C 836.283 131.634, 836.226 129.946, 836.578 128.546 C 837 126.864, 836.804 126, 836.001 126 C 835.333 126, 835.040 125.339, 835.349 124.532 C 835.659 123.725, 835.452 122.779, 834.888 122.431 C 834.325 122.083, 834.100 121.183, 834.388 120.431 C 834.677 119.679, 834.452 118.779, 833.888 118.431 C 833.325 118.083, 833.105 117.168, 833.400 116.399 C 833.696 115.629, 833.550 115, 833.077 115 C 832.604 115, 831.913 113.763, 831.541 112.250 C 830.540 108.180, 820.924 87.982, 818.284 84.406 C 817.028 82.704, 816 80.984, 816 80.584 C 816 80.184, 815.438 79.250, 814.750 78.509 C 814.063 77.767, 812.600 75.988, 811.500 74.554 C 803.091 63.593, 787.419 48, 784.812 48 C 784.331 48, 783.678 47.325, 783.362 46.500 C 783.045 45.675, 782.145 45, 781.362 45 C 780.578 45, 779.678 44.325, 779.362 43.500 C 779.045 42.675, 778.159 42, 777.393 42 C 776.627 42, 776 41.550, 776 41 C 776 40.450, 775.325 40, 774.500 40 C 773.675 40, 773 39.550, 773 39 C 773 38.450, 772.325 38, 771.500 38 C 770.675 38, 770 37.550, 770 37 C 770 36.450, 769.357 36, 768.571 36 C 767.786 36, 766.436 35.293, 765.571 34.429 C 764.707 33.564, 763.993 33.227, 763.985 33.679 C 763.976 34.130, 763.639 34.050, 763.235 33.500 C 762.334 32.274, 746.794 24.554, 745.750 24.813 C 745.337 24.916, 745 24.475, 745 23.833 C 745 23.192, 744.734 22.933, 744.408 23.258 C 744.083 23.584, 741.720 22.946, 739.158 21.841 C 720.998 14.010, 681.216 7.113, 630 2.918 C 609.089 1.205, 524.782 0.905, 504.500 2.471 M 397.500 85.409 C 386.041 88.249, 375.253 96.154, 368.328 106.788 C 362.173 116.239, 359.618 124.681, 359.638 135.500 C 359.657 146.055, 362.168 154.863, 367.510 163.122 C 372.612 171.008, 376.785 175.224, 383 178.771 C 385.475 180.183, 388.175 181.882, 389 182.547 C 389.825 183.212, 392.627 184.061, 395.227 184.435 C 397.826 184.810, 400.181 185.483, 400.458 185.933 C 401.140 187.035, 419.894 186.981, 420.577 185.875 C 420.875 185.394, 422.351 185, 423.859 185 C 425.367 185, 427.140 184.460, 427.800 183.800 C 428.460 183.140, 429 182.934, 429 183.342 C 429 184.304, 437.281 179.522, 442.812 175.365 C 450.235 169.787, 458.252 157.501, 460.234 148.663 C 461.738 141.960, 461.908 128.995, 460.543 125.074 C 459.859 123.108, 459.481 120.979, 459.703 120.342 C 459.924 119.705, 459.632 118.890, 459.053 118.533 C 458.474 118.175, 458 117.171, 458 116.303 C 458 114.649, 447.218 98.012, 446.128 97.984 C 445.783 97.975, 443.925 96.577, 442 94.877 C 437.330 90.753, 428.711 86.508, 422.201 85.125 C 415.426 83.687, 403.917 83.819, 397.500 85.409" stroke="none" fill="#3471a3" fill-rule="evenodd"/><path d="M 552.250 0.746 C 558.163 0.923, 567.837 0.923, 573.750 0.746 C 579.663 0.569, 574.825 0.425, 563 0.425 C 551.175 0.425, 546.337 0.569, 552.250 0.746 M 821.099 88.500 C 821.099 89.050, 822.854 92.875, 825 97 C 827.146 101.125, 828.901 104.050, 828.901 103.500 C 828.901 102.950, 827.146 99.125, 825 95 C 822.854 90.875, 821.099 87.950, 821.099 88.500 M 838.486 281.500 C 838.486 355.200, 838.605 385.202, 838.750 348.172 C 838.895 311.142, 838.895 250.842, 838.750 214.172 C 838.605 177.502, 838.486 207.800, 838.486 281.500 M 374 290 L 183.500 290.508 373.691 290.754 C 499.672 290.917, 564.091 290.662, 564.500 290 C 564.840 289.450, 564.979 289.111, 564.809 289.246 C 564.639 289.382, 478.775 289.721, 374 290 M 871.993 358.250 C 871.987 421.361, 871.841 427.328, 870.045 437.500 C 863.664 473.639, 848.493 502.985, 822.035 530.368 C 801.358 551.768, 774.574 567.974, 746.659 575.977 C 722.943 582.776, 734.456 582.332, 564 583.017 C 398.681 583.681, 407.965 583.396, 390.500 588.340 C 369.119 594.393, 350.890 605.305, 332.705 622.937 C 312.355 642.670, 298.086 668.886, 292.352 697.080 C 290.797 704.727, 290.605 718.073, 290.255 842.500 C 289.990 936.493, 290.210 982.839, 290.955 990.138 C 293.923 1019.229, 304.046 1039.984, 326.044 1062.073 C 345.048 1081.156, 367.617 1095.296, 399.257 1107.942 C 427.477 1119.220, 471.688 1129.954, 511.500 1135.192 C 526.348 1137.145, 533.056 1137.431, 564.500 1137.452 C 596.190 1137.474, 602.416 1137.213, 616.500 1135.273 C 670.102 1127.890, 717.605 1115.145, 751.500 1099.054 C 801.752 1075.198, 830.563 1041.427, 837.589 998.143 C 838.675 991.455, 838.993 976.662, 838.996 932.750 L 839 876 702 876 L 565 876 565 859 L 565 842 776.750 841.994 C 1007.096 841.988, 998.301 842.193, 1015.500 836.426 C 1057.297 822.412, 1081.277 791.624, 1107.866 717.836 C 1120.634 682.400, 1127.049 655.441, 1131.619 618 C 1133.729 600.721, 1134 557.379, 1132.118 538.500 C 1127.880 496.005, 1118.606 446.800, 1108.399 412.663 C 1087.741 343.569, 1054.783 304.703, 1007.500 293.677 C 993.510 290.414, 984.604 290, 928.428 290 L 872 290 871.993 358.250 M 63.971 340.750 L 57.500 347.500 64.250 341.029 C 70.520 335.018, 71.457 334, 70.721 334 C 70.568 334, 67.530 337.038, 63.971 340.750 M 495.250 549.750 C 533.613 549.895, 596.388 549.895, 634.750 549.750 C 673.113 549.605, 641.725 549.486, 565 549.486 C 488.275 549.486, 456.888 549.605, 495.250 549.750 M 707.738 947.183 C 707.057 947.615, 705.664 947.976, 704.642 947.985 C 702.326 948.004, 693 952.217, 693 953.244 C 693 953.660, 692.555 954, 692.011 954 C 691.468 954, 690.026 954.788, 688.807 955.750 C 683.994 959.551, 675.333 969, 676.662 969 C 677.018 969, 676.582 969.804, 675.693 970.787 C 673.743 972.941, 670.856 979.551, 670.358 983 C 669.742 987.266, 669.464 988.466, 668.850 989.500 C 667.776 991.309, 667.878 1004, 668.966 1004 C 669.535 1004, 670 1005.998, 670 1008.441 C 670 1010.884, 670.450 1013.160, 671 1013.500 C 671.550 1013.840, 672 1015.216, 672 1016.559 C 672 1017.902, 672.477 1019, 673.059 1019 C 673.641 1019, 673.868 1019.404, 673.563 1019.899 C 673.257 1020.393, 674.123 1021.855, 675.486 1023.149 C 676.850 1024.442, 677.973 1026.063, 677.983 1026.750 C 677.992 1027.438, 678.477 1028, 679.059 1028 C 679.641 1028, 679.871 1028.400, 679.569 1028.888 C 678.865 1030.028, 686.321 1036.584, 690.667 1038.646 C 692.500 1039.516, 694 1040.627, 694 1041.114 C 694 1041.601, 694.675 1042, 695.500 1042 C 696.325 1042, 697 1042.378, 697 1042.840 C 697 1043.644, 701.079 1045.106, 707.500 1046.605 C 711.834 1047.617, 726.323 1047.899, 727.500 1046.994 C 728.050 1046.572, 730.525 1045.910, 733 1045.524 C 735.475 1045.137, 739.300 1043.638, 741.500 1042.191 C 743.700 1040.745, 745.837 1039.660, 746.250 1039.781 C 746.663 1039.901, 747 1039.550, 747 1039 C 747 1038.450, 747.471 1038, 748.047 1038 C 749.121 1038, 756.312 1031.029, 759 1027.384 C 763.393 1021.426, 767 1014.033, 767 1010.989 C 767 1009.565, 767.485 1007.915, 768.078 1007.322 C 769.505 1005.895, 769.487 986.662, 768.058 986.186 C 767.476 985.992, 767 984.572, 767 983.031 C 767 979.295, 765.442 975.928, 759.658 967.162 C 756.922 963.016, 753.333 958.949, 751.408 957.813 C 749.533 956.707, 747.996 955.509, 747.992 955.151 C 747.988 954.793, 746.975 953.996, 745.742 953.381 C 744.509 952.765, 742.072 951.512, 740.328 950.596 C 734.542 947.559, 725.823 945.877, 717.238 946.142 C 712.694 946.282, 708.419 946.750, 707.738 947.183" stroke="none" fill="#fcd048" fill-rule="evenodd"/></svg>