<?xml version="1.0" encoding="UTF-8"?>
<svg id="icon-0" xmlns="http://www.w3.org/2000/svg" viewBox="0 0 1497.93 354.58">
  <defs>
    <style>
      .cls-1 {
        fill: #947947;
      }

      .cls-1, .cls-2 {
        stroke-width: 0px;
      }

      .cls-2 {
        fill: #b89d6b;
      }
    </style>
  </defs>
  <g id="tight-bounds">
    <g>
      <path id="qz-0" class="cls-1" d="m246.5,23.35h0c2.99,0,5.41,6.71,5.41,14.98v277.92c0,8.27-2.42,14.98-5.41,14.98h0c-2.99,0-5.41-6.71-5.41-14.98V38.33c0-8.27,2.42-14.98,5.41-14.98Z"/>
      <g id="textblocktransform">
        <g id="text-0">
          <path class="cls-1" d="m314.56,173.17h-34.3v-85.75h17.15v-17.15h17.15v-17.15h51.45v17.15h17.15v17.15h17.15v85.75h-34.3v-34.3h-51.45v34.3Zm0-85.75v34.3h51.45v-34.3h-17.15v-17.15h-17.15v17.15h-17.15Zm188.65-17.15h-34.3v-17.15h34.3v17.15Zm34.3,102.9h-102.9v-17.15h34.3v-51.45h-17.15v-17.15h51.45v68.6h34.3v17.15Zm137.2,0h-102.9v-17.15h-17.15v-51.45h17.15v-17.15h68.6v-34.3h34.3v120.05Zm-85.75-68.6v51.45h51.45v-51.45h-51.45Zm222.95,68.6h-102.9v-17.15h-17.15v-17.15h17.15v-17.15h68.6v-17.15h-68.6v-17.15h85.75v17.15h17.15v68.6Zm-85.75-34.3v17.15h51.45v-17.15h-51.45Zm137.2,34.3h-34.3v-85.75h102.9v17.15h17.15v68.6h-34.3v-68.6h-51.45v68.6Z"/>
          <path class="cls-2" d="m314.56,301.46h-34.3v-120.05h34.3v17.15h17.15v17.15h17.15v-17.15h17.15v-17.15h34.3v120.05h-34.3v-68.6h-17.15v34.3h-17.15v-34.3h-17.15v68.6Zm222.95,0h-102.9v-17.15h-17.15v-51.45h17.15v-17.15h102.9v17.15h-85.75v51.45h85.75v17.15Zm51.45,0h-34.3v-85.75h17.15v-17.15h17.15v-17.15h51.45v17.15h17.15v17.15h17.15v85.75h-34.3v-34.3h-51.45v34.3Zm0-85.75v34.3h51.45v-34.3h-17.15v-17.15h-17.15v17.15h-17.15Zm222.95,85.75h-102.9v-17.15h34.3v-85.75h-17.15v-17.15h51.45v102.9h34.3v17.15Zm102.9-102.9h-34.3v-17.15h34.3v17.15Zm34.3,102.9h-102.9v-17.15h34.3v-51.45h-17.15v-17.15h51.45v68.6h34.3v17.15Zm120.05,0h-102.9v-17.15h85.75v-17.15h-68.6v-17.15h-17.15v-17.15h17.15v-17.15h85.75v17.15h-68.6v17.15h68.6v17.15h17.15v17.15h-17.15v17.15Zm120.05,0h-34.3v-68.6h-34.3v-17.15h34.3v-34.3h34.3v34.3h34.3v17.15h-34.3v68.6Zm154.35,0h-85.75v-17.15h-17.15v-51.45h17.15v-17.15h85.75v17.15h17.15v34.3h-85.75v17.15h68.6v17.15Zm-68.6-68.6v17.15h51.45v-17.15h-51.45Zm154.35-17.15v17.15h17.15v17.15h-17.15v51.45h-34.3v-85.75h34.3Zm17.15,0h51.45v17.15h-51.45v-17.15Z"/>
        </g>
      </g>
      <g>
        <path class="cls-1" d="m183.2,200.93h-17.73v-23.64H0v147.74c0,16.55,13,29.55,29.55,29.55h106.37c16.55,0,29.55-13,29.55-29.55v-17.73h17.73c16.55,0,29.55-13,29.55-29.55v-47.28c0-16.55-13-29.55-29.55-29.55Zm-124.69,109.33l-10.05,5.91-26-44.32,25.41-44.32,10.05,5.91-21.27,38.41,21.87,38.41Zm18.32,4.73l-11.82-3.55,23.64-82.73,11.23,2.95-23.05,83.33Zm40.78,1.18l-10.05-5.91,21.87-38.41-21.87-38.41,10.05-5.91,25.41,44.32-25.41,44.32Zm83.33-38.41c0,10.05-7.68,17.73-17.73,17.73h-17.73v-82.73h17.73c10.05,0,17.73,7.68,17.73,17.73v47.28Z"/>
        <path class="cls-2" d="m141.83,165.47h-11.82v-11.82c0-6.5-5.32-11.82-11.82-11.82H35.46c-13,0-23.64-10.64-23.64-23.64s10.64-23.64,23.64-23.64h82.73c6.5,0,11.82-5.32,11.82-11.82s-5.32-11.82-11.82-11.82H35.46c-13,0-23.64-10.64-23.64-23.64s10.64-23.64,23.64-23.64h82.73c6.5,0,11.82-5.32,11.82-11.82V0h11.82v11.82c0,13-10.64,23.64-23.64,23.64H35.46c-6.5,0-11.82,5.32-11.82,11.82s5.32,11.82,11.82,11.82h82.73c13,0,23.64,10.64,23.64,23.64s-10.64,23.64-23.64,23.64H35.46c-6.5,0-11.82,5.32-11.82,11.82s5.32,11.82,11.82,11.82h82.73c13,0,23.64,10.64,23.64,23.64v11.82Z"/>
      </g>
    </g>
  </g>
</svg>